<?xml version="1.0" encoding="utf-8"?>
<svg version="1.1" width="120" height="120" viewBox="0 0 120 120" xmlns="http://www.w3.org/2000/svg">
  <svg width="120" height="120" data-version="2" data-id="lg_2bIOFU36Kx96nca5Mz" viewBox="0 0 120 120" x="0" y="0">
    <path fill="#ff5c7a" d="M 78.504 57.084 L 78.895 56.378 L 78.02 52.07 C 77.284 48.253 75.85 44.601 73.789 41.295 C 72.474 39.259 70.931 37.378 69.189 35.689 L 68.498 35.029 C 65.989 32.683 63.117 30.751 59.989 29.31 C 56.876 30.727 54.01 32.625 51.503 34.937 L 50.812 35.599 C 46.285 40.068 43.202 45.771 41.958 51.981 L 41.084 56.287 L 41.474 56.993 C 42.118 58.117 42.739 59.271 43.337 60.456 L 43.983 61.708 C 44.703 63.183 45.392 64.702 46.051 66.267 L 46.166 66.129 L 46.719 65.628 C 47.807 64.587 48.959 63.613 50.168 62.712 C 50.906 62.127 51.674 61.579 52.469 61.071 L 53.504 60.433 C 54.652 59.746 55.841 59.129 57.067 58.588 L 58.93 57.767 C 59.543 57.487 60.25 57.487 60.863 57.767 L 62.748 58.588 C 63.965 59.134 65.146 59.751 66.291 60.433 L 67.348 61.093 C 68.146 61.595 68.913 62.127 69.649 62.688 L 70.706 63.486 C 71.504 64.155 72.271 64.837 73.007 65.537 L 73.65 66.152 L 73.65 66.264 C 74.472 64.318 75.369 62.403 76.341 60.524 C 77.216 59.407 77.86 58.223 78.504 57.084 M 74.018 74.013 L 72.777 72.259 C 69.653 68.247 65.576 65.06 60.909 62.985 L 59.989 62.599 L 59.092 62.986 C 54.404 65.068 50.311 68.269 47.179 72.302 C 46.748 72.837 46.326 73.421 45.913 74.058 L 45.776 74.287 C 42.698 78.968 40.986 84.401 40.83 89.985 C 51.134 100.329 56.929 109.125 59.989 118.649 C 62.956 109.125 68.842 100.421 79.147 89.985 C 79.025 84.284 77.245 78.738 74.018 74.013 M 44.902 117.578 C 48.265 118.426 51.698 118.982 55.159 119.24 C 52.261 110.56 46.604 102.426 36.76 92.628 L 29.561 86.316 C 25.198 82.458 20.164 79.416 14.702 77.34 C 11.927 76.296 9.064 75.495 6.148 74.947 C 4.338 74.604 2.51 74.368 0.674 74.241 C 6.349 95.588 23.293 112.19 44.902 117.578 M 17.646 35.416 L 16.819 37.215 C 12.055 47.765 9.414 59.134 9.045 70.686 L 10.816 71.164 C 11.668 71.416 11.69 71.392 12.127 71.392 C 13.57 71.804 14.996 72.268 16.404 72.782 C 22.419 75.102 27.953 78.492 32.735 82.786 L 36.345 85.951 C 37.086 80.827 38.955 75.927 41.819 71.598 L 41.958 71.392 L 42.578 70.504 L 42.372 69.98 C 41.605 68.066 40.769 66.175 39.864 64.306 L 39.565 63.737 C 38.346 61.28 37.019 58.879 35.587 56.538 C 31.482 49.842 26.502 43.713 20.775 38.31 C 20.162 37.701 19.526 37.102 18.867 36.509 L 17.646 35.416 Z M 33.746 13.68 C 31.512 16.793 29.644 20.149 28.18 23.681 C 26.612 27.549 25.517 31.588 24.915 35.712 C 26.081 36.835 27.223 38.005 28.341 39.22 L 28.594 39.516 C 29.759 40.793 30.902 42.099 32.022 43.435 L 33.126 44.825 C 33.938 45.858 34.742 46.914 35.539 47.992 L 36.62 49.519 L 37.312 50.477 C 37.312 50.089 37.494 49.725 37.611 49.337 L 37.885 48.243 L 38.37 46.74 L 38.692 45.736 L 39.336 44.165 L 39.703 43.299 C 39.978 42.677 40.278 42.062 40.601 41.454 C 40.601 41.295 40.76 41.111 40.854 40.93 C 41.267 40.17 41.712 39.411 42.186 38.651 L 42.532 38.149 L 43.683 36.487 L 44.304 35.712 L 45.338 34.435 L 46.12 33.593 C 46.366 33.289 46.641 32.993 46.948 32.704 L 46.097 30.723 C 45.798 30.062 45.637 29.606 45.361 29.058 C 45.087 28.511 44.579 27.6 44.188 26.779 C 43.796 25.96 43.635 25.708 43.314 25.185 L 41.958 23.135 L 40.945 21.608 C 40.271 20.728 39.574 19.853 38.853 18.988 L 38.255 18.258 C 37.519 17.393 36.691 16.496 35.771 15.57 L 33.746 13.68 Z M 59.989 0.761 C 52.957 4.298 47.092 9.754 43.085 16.481 L 44.464 18.282 L 45.155 19.17 C 45.983 20.354 46.787 21.449 47.456 22.793 L 47.936 23.613 C 48.488 24.6 49.026 25.611 49.548 26.644 L 50.168 27.942 L 50.789 29.241 L 51.042 29.058 L 54.238 26.779 L 55.181 26.233 C 56.41 25.527 57.678 24.889 58.976 24.32 C 59.577 24.054 60.263 24.054 60.863 24.32 C 62.157 24.885 63.415 25.524 64.635 26.234 L 65.601 26.803 C 66.674 27.442 67.701 28.125 68.683 28.854 L 69.05 29.128 L 69.671 27.828 L 70.293 26.508 C 70.798 25.504 71.327 24.524 71.879 23.568 L 72.385 22.655 C 73.122 21.441 73.889 20.248 74.686 19.079 L 75.422 18.145 C 75.674 17.826 76.295 16.937 76.779 16.368 C 72.815 9.673 66.985 4.254 59.989 0.761 M 91.705 23.545 C 90.241 20.012 88.373 16.656 86.139 13.542 L 84.114 15.549 C 83.195 16.459 82.36 17.362 81.609 18.258 C 80.482 19.602 79.767 20.537 78.917 21.632 C 78.642 21.996 78.381 22.391 78.136 22.816 L 76.571 25.095 C 76.089 25.824 76.019 26.096 75.743 26.575 C 75.311 27.32 74.905 28.08 74.524 28.854 C 74.157 29.628 74.042 29.971 73.789 30.516 L 72.937 32.476 L 73.513 33.091 L 73.926 33.502 L 75.145 34.938 C 76.067 36.063 76.92 37.243 77.699 38.468 L 78.411 39.723 C 78.917 40.557 79.385 41.415 79.813 42.296 L 80.482 43.891 C 80.835 44.681 81.164 45.502 81.47 46.353 C 81.93 47.629 81.792 47.514 81.976 48.107 C 82.161 48.698 82.412 49.519 82.574 50.249 L 83.264 49.292 L 84.368 47.742 L 86.668 44.643 L 87.819 43.185 C 88.861 41.92 89.934 40.682 91.038 39.472 L 91.498 38.971 C 92.603 37.784 93.798 36.691 94.903 35.483 C 94.305 31.439 93.232 27.478 91.705 23.681 L 91.705 23.545 Z M 103.204 37.215 L 102.378 35.37 L 101.157 36.441 C 100.499 37.017 99.846 37.634 99.204 38.287 C 93.484 43.69 88.511 49.819 84.413 56.515 C 84.123 56.954 83.832 57.441 83.54 57.974 C 82.452 59.826 81.425 61.724 80.458 63.669 L 80.16 64.283 C 79.254 66.136 78.419 68.02 77.652 69.934 L 77.445 70.46 L 78.068 71.347 C 81.045 75.708 82.965 80.69 83.679 85.906 L 87.242 82.784 L 89.933 80.507 L 90.901 79.8 L 92.786 78.479 L 93.981 77.704 L 95.731 76.633 L 97.063 75.904 C 97.646 75.57 98.221 75.266 98.789 74.993 L 100.237 74.31 C 100.789 74.051 101.364 73.8 101.963 73.558 L 103.457 72.942 L 105.206 72.304 L 106.769 71.803 L 108.564 71.279 L 110.128 70.892 L 110.932 70.664 C 110.56 59.12 107.92 47.758 103.158 37.215 L 103.204 37.215 Z M 113.876 74.924 C 105.164 76.522 97.064 80.465 90.462 86.318 L 83.286 92.628 C 73.421 102.426 67.762 110.56 64.887 119.24 C 90.852 117.249 112.699 99.191 119.327 74.241 C 117.482 74.368 115.647 74.612 113.831 74.971 L 113.876 74.924 Z" style=""/>
  </svg>
</svg>