<?xml version="1.0" encoding="utf-8"?>
<svg version="1.1" width="557" height="119" viewBox="0 0 557 119" xmlns="http://www.w3.org/2000/svg">
  <svg width="557" height="119" data-version="2" data-id="lg_2bIOFU36Kx96nca5Mz" viewBox="0 0 557 119" x="0" y="0">
    <path fill="#ff5c7a" d="M134.335 89.25h-15.95v-88h15.95v37.12q2.93-2.93 6.74-4.44 3.8-1.51 8.11-1.51 5.87 0 10.96 2.79 5.08 2.8 8.25 8.16 3.16 5.36 3.16 12.97v32.91h-15.95v-30.8q0-4.58-2.75-8.16-2.75-3.57-7.89-3.57-4.12 0-7.37 2.79-3.26 2.8-3.26 8.76z"/>
    <rect width="53.17" height="88" x="-26.59" y="-44" fill="none" rx="0" ry="0" transform="translate(145.47 45.75)"/>
    <path fill="#ff5c7a" d="M220.595 91.08q-8.16 0-14.95-3.94-6.78-3.94-10.77-10.63-3.98-6.69-3.98-14.76 0-8.16 3.98-14.81 3.99-6.64 10.77-10.58 6.79-3.94 14.95-3.94 8.25 0 14.98 3.94 6.74 3.94 10.73 10.58 3.99 6.65 3.99 14.81 0 8.07-3.99 14.76-3.99 6.69-10.73 10.63-6.73 3.94-14.98 3.94m0-14.3q4.12 0 7.47-2.01 3.34-2.02 5.31-5.46 1.97-3.44 1.97-7.56 0-4.22-1.97-7.61-1.97-3.39-5.31-5.41-3.35-2.01-7.47-2.01-4.13 0-7.48 2.01-3.34 2.02-5.31 5.41-1.97 3.39-1.97 7.61 0 4.12 1.97 7.56 1.97 3.44 5.31 5.46 3.35 2.01 7.48 2.01"/>
    <rect width="59.4" height="58.66" x="-29.7" y="-29.33" fill="none" rx="0" ry="0" transform="translate(221.1 62.25)"/>
    <path fill="#ff5c7a" d="M286.675 116.75h-15.95v-82.5h13.75v5.41q3.21-3.21 7.57-5.04 4.35-1.84 9.58-1.84 7.7 0 13.93 3.9 6.23 3.89 9.94 10.49 3.72 6.6 3.72 14.58 0 7.97-3.72 14.53-3.71 6.55-9.94 10.49-6.23 3.95-13.93 3.95-4.4 0-8.16-1.33t-6.79-3.62zm13.11-40.06q4.04 0 7.34-2.02 3.3-2.01 5.27-5.4 1.97-3.4 1.97-7.52 0-4.13-1.97-7.52-1.97-3.39-5.27-5.41-3.3-2.01-7.34-2.01-4.03 0-7.33 2.01-3.3 2.02-5.27 5.41-1.97 3.39-1.97 7.52 0 4.12 1.97 7.52 1.97 3.39 5.27 5.4 3.3 2.02 7.33 2.02"/>
    <rect width="58.49" height="83.97" x="-29.25" y="-41.98" fill="none" rx="0" ry="0" transform="translate(300.47 75.27)"/>
    <path fill="#ff5c7a" d="M372.015 89.25h-15.95V46.9h-10.26V34.25h10.54V15.92h15.4v18.33h10.91V46.9h-10.64z"/>
    <rect width="36.85" height="73.33" x="-18.43" y="-36.66" fill="none" rx="0" ry="0" transform="translate(364.73 53.09)"/>
    <path fill="#ff5c7a" d="M418.125 89.25h-15.95v-55h15.95zm-7.98-62.98q-3.57 0-6.05-2.47-2.47-2.48-2.47-6.05 0-3.67 2.47-6.1 2.48-2.43 6.05-2.43 3.67 0 6.1 2.43 2.43 2.43 2.43 6.1 0 3.57-2.43 6.05-2.43 2.47-6.1 2.47"/>
    <rect width="17.05" height="80.03" x="-8.53" y="-40.02" fill="none" rx="0" ry="0" transform="translate(410.65 49.73)"/>
    <path fill="#ff5c7a" d="M457.445 89.25h-15.95v-55h14.3v9.44q2.84-4.77 7.19-7.38 4.36-2.61 10.22-2.61l3.49 14.12q-1.74-.55-3.94-.55-6.88 0-11.1 4.44-4.21 4.45-4.21 12.7z"/>
    <rect width="35.2" height="55.55" x="-17.6" y="-27.77" fill="none" rx="0" ry="0" transform="translate(459.6 61.98)"/>
    <path fill="#ff5c7a" d="M519.495 90.72q-7.61 0-13.84-3.95-6.23-3.94-9.95-10.49-3.71-6.56-3.71-14.53 0-7.98 3.71-14.58 3.72-6.6 9.95-10.49 6.23-3.9 13.84-3.9 5.32 0 9.72 1.88t7.52 5.18v-5.59h13.75v55h-13.75v-5.59q-3.12 3.3-7.52 5.18-4.4 1.88-9.72 1.88m1.93-14.03q4.03 0 7.33-2.02 3.3-2.01 5.27-5.4 1.97-3.4 1.97-7.52 0-4.13-1.97-7.52-1.97-3.39-5.27-5.41-3.3-2.01-7.33-2.01-4.04 0-7.34 2.01-3.3 2.02-5.27 5.41-1.97 3.39-1.97 7.52 0 4.12 1.97 7.52 1.97 3.39 5.27 5.4 3.3 2.02 7.34 2.02"/>
    <rect width="58.49" height="57.94" x="-29.25" y="-28.97" fill="none" rx="0" ry="0" transform="translate(521.74 62.25)"/>
    <path fill="#ff5c7a" d="m60.983 45.582.279-.503-.623-3.07a22.947 22.733 0 0 0-3.016-7.68 22.947 22.733 0 0 0-3.278-3.995l-.492-.47a22.947 22.733 0 0 0-6.065-4.076 22.947 22.733 0 0 0-6.048 4.01l-.492.472a22.947 22.733 0 0 0-6.31 11.675l-.623 3.069.278.503q.689 1.202 1.328 2.468l.46.893q.77 1.575 1.474 3.248l.082-.098.394-.357a26.226 25.98 0 0 1 2.458-2.078 19.67 19.486 0 0 1 1.64-1.17l.737-.454a22.947 22.733 0 0 1 2.54-1.315l1.328-.585a1.64 1.624 0 0 1 1.377 0l1.344.585a24.587 24.357 0 0 1 2.524 1.315l.754.47q.853.537 1.64 1.137l.753.569q.853.714 1.64 1.461l.458.439v.08a59.008 58.457 0 0 1 1.918-4.091c.623-.796 1.082-1.64 1.541-2.452m-3.196 12.065-.885-1.25a22.128 21.921 0 0 0-8.458-6.61l-.656-.275-.639.276a22.128 21.921 0 0 0-8.49 6.64q-.46.57-.902 1.251l-.098.163a21.8 21.597 0 0 0-3.525 11.188c7.344 7.372 11.474 13.64 13.654 20.427 2.115-6.787 6.31-12.99 13.654-20.427a21.308 21.11 0 0 0-3.655-11.383M37.036 88.694a42.617 42.219 0 0 0 7.31 1.185c-2.065-6.186-6.097-11.983-13.113-18.966l-5.13-4.498a34.421 34.1 0 0 0-10.589-6.397 36.06 35.724 0 0 0-6.097-1.705 32.782 32.476 0 0 0-3.901-.504 43.6 43.193 0 0 0 31.52 30.885M17.612 30.14l-.59 1.282a63.925 63.328 0 0 0-5.54 23.854l1.262.341c.607.179.623.162.935.162a44.256 43.843 0 0 1 3.048.99 37.7 37.347 0 0 1 11.638 7.13l2.573 2.256a25.406 25.169 0 0 1 3.901-10.23l.099-.146.442-.633-.147-.373q-.82-2.046-1.787-4.044l-.213-.406a67.203 66.576 0 0 0-2.836-5.13 63.925 63.328 0 0 0-10.555-12.991q-.656-.65-1.36-1.283Zm11.474-15.491a36.06 35.724 0 0 0-3.967 7.128 37.7 37.347 0 0 0-2.327 8.574q1.246 1.201 2.442 2.5l.18.211q1.246 1.364 2.443 2.793l.787.99q.868 1.105 1.72 2.258l.77 1.088.493.682c0-.276.13-.536.213-.812l.196-.78.345-1.071.23-.715.458-1.12.262-.617q.295-.666.64-1.315c0-.114.114-.244.18-.374q.442-.812.95-1.624l.246-.357.82-1.185.443-.552.737-.91.557-.6q.263-.325.59-.634l-.606-1.412c-.213-.471-.328-.796-.524-1.186s-.558-1.039-.836-1.624c-.28-.584-.394-.763-.623-1.136l-.967-1.462-.722-1.088q-.72-.941-1.491-1.867l-.426-.52q-.787-.925-1.77-1.916Zm18.702-9.207a29.504 29.228 0 0 0-12.047 11.204l.983 1.283.492.633c.59.844 1.164 1.624 1.64 2.582l.343.584q.59 1.056 1.148 2.16l.442.926.443.925.18-.13 2.278-1.624.672-.39a27.865 27.605 0 0 1 2.705-1.363 1.64 1.624 0 0 1 1.344 0 26.226 25.98 0 0 1 2.688 1.364l.689.406q1.147.682 2.196 1.461l.262.195.443-.926.442-.941q.541-1.072 1.131-2.095l.36-.65q.788-1.299 1.64-2.549l.525-.666c.18-.227.622-.86.967-1.266A29.012 28.741 0 0 0 47.788 5.442M70.391 21.68a36.06 35.724 0 0 0-3.966-7.129l-1.443 1.43q-.983.973-1.786 1.931c-.803.958-1.312 1.624-1.918 2.404q-.295.39-.557.844l-1.115 1.624c-.344.52-.393.714-.59 1.055a26.862 26.862 0 0 0-.869 1.624c-.262.552-.344.796-.524 1.185l-.607 1.397.41.438.295.293.869 1.023a26.226 25.98 0 0 1 1.82 2.516l.507.894q.541.893 1 1.834l.476 1.137q.377.845.704 1.754c.328.91.23.828.361 1.25.131.422.311 1.007.426 1.527l.492-.682.787-1.105 1.639-2.208.82-1.04a70.481 69.823 0 0 1 2.294-2.646l.328-.357c.787-.845 1.639-1.624 2.426-2.485a37.7 37.347 0 0 0-2.279-8.411Zm8.196 9.742-.59-1.315-.869.763q-.705.617-1.393 1.316a63.925 63.328 0 0 0-10.54 12.99q-.311.47-.622 1.04-1.164 1.98-2.197 4.059l-.213.438q-.967 1.981-1.787 4.027l-.147.374.443.633a24.587 24.357 0 0 1 3.999 10.376l2.54-2.225 1.918-1.623.689-.504 1.344-.942.852-.552 1.246-.763.95-.52q.623-.357 1.23-.649l1.032-.487q.59-.276 1.23-.536l1.065-.438 1.246-.455 1.114-.357 1.279-.374 1.115-.276.573-.162a63.925 63.328 0 0 0-5.54-23.838Zm7.605 26.874a34.421 34.1 0 0 0-16.686 8.12l-5.114 4.497c-7.031 6.983-11.064 12.78-13.113 18.966a43.6 43.193 0 0 0 38.798-32.07 31.143 30.852 0 0 0-3.917.52Z"/>
  </svg>
</svg>