<?xml version="1.0" encoding="utf-8"?>
<svg viewBox="0 0 350 67" xmlns="http://www.w3.org/2000/svg">
  <g transform="matrix(1.000357, 0, 0, 1.000357, -206.30864, -288.746153)" style="transform-origin: 206.309px 288.746px;">
    <g style="" transform="matrix(0.670038, 0, 0, 0.670038, 130.232437, 156.679535)">
      <title>icon</title>
      <circle cx="163.54" cy="247.103" r="50" fill="#F15922"/>
      <circle cx="163.54" cy="247.103" r="30" fill="#ffffff"/>
      <rect x="181.099" y="265.602" width="19.435" height="19.435" rx="4" style="fill: rgb(255, 255, 255);"/>
    </g>
    <g style="" transform="matrix(1.429443, 0, 0, 1.429443, 39.860077, -35.901867)">
      <title>text</title>
      <path d="M 211.176 234.998 L 203.74 266.106 L 194.412 266.106 L 189.44 245.294 L 184.424 266.106 L 175.096 266.106 L 167.66 234.998 L 175.844 234.998 L 179.848 257.526 L 185.304 234.998 L 193.532 234.998 L 198.988 257.526 L 203.036 234.998 L 211.176 234.998 Z" style="fill: rgba(74, 74, 74, 0.85);"/>
      <path d="M 258.417 234.998 L 250.981 266.106 L 241.653 266.106 L 236.681 245.294 L 231.665 266.106 L 222.337 266.106 L 214.901 234.998 L 223.085 234.998 L 227.089 257.526 L 232.545 234.998 L 240.773 234.998 L 246.229 257.526 L 250.277 234.998 L 258.417 234.998 Z" style="fill: rgba(74, 74, 74, 0.85);"/>
      <path d="M 282.032 250.09 C 283.909 250.53 285.398 251.439 286.498 252.818 C 287.598 254.197 288.148 255.795 288.148 257.614 C 288.148 260.283 287.261 262.366 285.486 263.862 C 283.711 265.358 281.167 266.106 277.852 266.106 L 263.376 266.106 L 263.376 234.998 L 277.5 234.998 C 280.668 234.998 283.117 235.687 284.848 237.066 C 286.579 238.445 287.444 240.41 287.444 242.962 C 287.444 244.839 286.945 246.401 285.948 247.648 C 284.951 248.895 283.645 249.709 282.032 250.09 Z M 270.9 247.714 L 275.828 247.714 C 278.439 247.714 279.744 246.599 279.744 244.37 C 279.744 242.141 278.409 241.026 275.74 241.026 L 270.9 241.026 L 270.9 247.714 Z M 276.268 259.99 C 279.055 259.99 280.448 258.846 280.448 256.558 C 280.448 255.443 280.081 254.571 279.348 253.94 C 278.615 253.309 277.573 252.994 276.224 252.994 L 270.9 252.994 L 270.9 259.99 L 276.268 259.99 Z" style="fill: rgba(74, 74, 74, 0.85);"/>
      <path d="M 312.379 260.43 L 300.719 260.43 L 298.783 266.106 L 290.863 266.106 L 302.259 235.218 L 310.927 235.218 L 322.323 266.106 L 314.315 266.106 L 312.379 260.43 Z M 310.443 254.71 L 306.571 243.27 L 302.655 254.71 L 310.443 254.71 Z" style="fill: rgba(74, 74, 74, 0.85);"/>
      <path d="M 361.206 235.218 L 361.206 266.106 L 353.682 266.106 L 353.682 246.79 L 346.994 266.106 L 340.482 266.106 L 333.75 246.746 L 333.75 266.106 L 326.226 266.106 L 326.226 235.218 L 335.422 235.218 L 343.826 256.734 L 352.054 235.218 L 361.206 235.218 Z" style="fill: rgba(74, 74, 74, 0.85);"/>
    </g>
  </g>
</svg>